# xmcd
#
# Track frame offsets: 
#        150
#        21770
#        42521
#        61647
#        84889
#        106407
#        128673
#        149125
#        170993
#
# Disc length: 2588 seconds
#
# Revision: 0
# Processed by: cddbd v1.5.2PL0 Copyright (c) Steve Scherf et al.
# Submitted via: ExactAudioCopyFreeDBPlugin 1.0
#
DISCID=790a1a09
DTITLE=Thanh Lam - Giot Lam CD1
DYEAR=1900
DGENRE=
TTITLE0=Giot nang ben them
TTITLE1=Loi cu ta ve
TTITLE2=Ben em la bien rong
TTITLE3=Cho em mot ngay
TTITLE4=Em va toi
TTITLE5=Im lang dem Hanoi
TTITLE6=Loi toi ru
TTITLE7=May trang bay ve
TTITLE8=Do tinh
EXTD=
EXTT0=
EXTT1=
EXTT2=
EXTT3=
EXTT4=
EXTT5=
EXTT6=
EXTT7=
EXTT8=
PLAYORDER=
